# xmcd CD database file
#
# Track frame offsets:
#	200
#	11185
#	25472
#	41902
#	63307
#	75482
#	89262
#	101832
#	121397
#	132685
#	145710
#	159267
#	177460
#	190837
#	205015
#	217205
#
# Disc length: 3082 seconds
#
# Revision: 0
# Processed by: cddbd v1.5PL3 Copyright (c) Steve Scherf et al.
# Submitted via: CDex 1.51
#
DISCID=ea0c0810
DTITLE=Colin Winski - Helldorado
DYEAR=1900
DGENRE=Rockabilly
TTITLE0=Wolfy Boogie
TTITLE1=Rockabilly Funeral
TTITLE2=Cool Love
TTITLE3=I'm Lonesome
TTITLE4=You're The One That Done It
TTITLE5=Bone Tired
TTITLE6=We Wanna Boogie
TTITLE7=The End/Sleepwalk
TTITLE8=Down The Line
TTITLE9=King Of The Drapes
TTITLE10=Rockin' My Life Away
TTITLE11=Nervous And Exhausted
TTITLE12=Bertha Lou
TTITLE13=Set You Free
TTITLE14=Ruby Pearl
TTITLE15=Lordy Hoody
EXTD=
EXTT0=
EXTT1=
EXTT2=
EXTT3=
EXTT4=
EXTT5=
EXTT6=
EXTT7=
EXTT8=
EXTT9=
EXTT10=
EXTT11=
EXTT12=
EXTT13=
EXTT14=
EXTT15=
PLAYORDER=
